PathFileType	4	(X/Y/Z)	C:\Users\Biomechanik\SynologyDrive\AlexP\Athlete_03\Athlete_3_25_03_31\Walking_08\marker_experimental.trc
DataRate	CameraRate	NumFrames	NumMarkers	Units	OrigDataRate	OrigDataStartFrame	OrigNumFrames
200.000000	200.000000	4	53	mm	200.000000	83	222
Frame#	Time	GLAB			RFHD			LFHD			C7			T6			SPINMOL			SPINM2			SPINM3			T12			BELTOL			BELT2			BELT3			SACROL			SACR2			SACR3			LTHOL			LTH2			LTH3			LSHAOL			LSHA2			LSHA3			LHEE			LTOE			LM5			RTHOL			RTH2			RTH3			RSHAOL			RSHA2			RSHA3			RHEE			RTOE			RM5			STRN			XIPH			LACR			LUAOL			LUA2			LUA3			LLAOL			LLA2			LLA3			LWRR			LWRU			RACR			RUAOL			RUA2			RUA3			RLAOL			RLA2			RLA3			RWRR			RWRU			
		X1	Y1	Z1	X2	Y2	Z2	X3	Y3	Z3	X4	Y4	Z4	X5	Y5	Z5	X6	Y6	Z6	X7	Y7	Z7	X8	Y8	Z8	X9	Y9	Z9	X10	Y10	Z10	X11	Y11	Z11	X12	Y12	Z12	X13	Y13	Z13	X14	Y14	Z14	X15	Y15	Z15	X16	Y16	Z16	X17	Y17	Z17	X18	Y18	Z18	X19	Y19	Z19	X20	Y20	Z20	X21	Y21	Z21	X22	Y22	Z22	X23	Y23	Z23	X24	Y24	Z24	X25	Y25	Z25	X26	Y26	Z26	X27	Y27	Z27	X28	Y28	Z28	X29	Y29	Z29	X30	Y30	Z30	X31	Y31	Z31	X32	Y32	Z32	X33	Y33	Z33	X34	Y34	Z34	X35	Y35	Z35	X36	Y36	Z36	X37	Y37	Z37	X38	Y38	Z38	X39	Y39	Z39	X40	Y40	Z40	X41	Y41	Z41	X42	Y42	Z42	X43	Y43	Z43	X44	Y44	Z44	X45	Y45	Z45	X46	Y46	Z46	X47	Y47	Z47	X48	Y48	Z48	X49	Y49	Z49	X50	Y50	Z50	X51	Y51	Z51	X52	Y52	Z52	X53	Y53	Z53	

84	0.415	85.51090240478501	1605.664916992188	228.9740905761719	35.57853317260727	1626.715698242188	295.1735229492188	39.33870315551745	1627.019409179688	157.1407928466797	-130.9253845214845	1438.256225585938	221.2620086669922	-191.2745971679689	1272.501586914062	219.6824493408203	-200.3967285156251	1233.170043945312	198.6139984130859	-204.7510986328126	1225.746337890625	248.5520935058593	-198.3993072509767	1168.902709960938	214.1057586669922	-179.1703491210938	1102.35693359375	214.3360595703125	-212.3340148925782	1070.253540039062	194.3312377929687	-214.2387237548829	1068.273559570312	245.3942260742187	-219.5489044189454	1007.995849609375	215.0146789550781	-202.4254455566407	955.4127197265625	185.4702606201172	-205.4632415771486	953.215087890625	237.3702850341797	-219.0364379882813	894.9053955078125	207.8660736083984	3.75780367851253	680.984619140625	10.52665328979492	-15.26072597503666	607.2307739257812	30.30390930175781	29.99218368530269	626.2181396484375	20.69098663330079	60.23438644409177	356.0653381347656	20.36952781677247	12.99457931518552	296.2287902832031	42.29886627197266	61.63072967529294	294.9032897949219	30.02487564086915	1.346106886863678	103.3133239746094	130.3090362548828	220.1336517333984	80.01330566406251	108.341911315918	168.6308898925781	52.17938613891602	19.37210845947269	-159.9044189453126	695.556884765625	391.9353942871093	-112.9458160400392	631.3081665039062	396.2020263671875	-160.3328857421876	635.4664306640625	380.2903137207031	-236.472885131836	349.3130493164062	367.0087890624999	-213.3073120117188	273.6618957519531	364.0449829101562	-258.3019104003907	292.7184143066406	352.8010559082031	-320.4219665527344	82.36716461181639	242.9623260498046	-113.600700378418	43.87917709350585	252.2089385986328	-164.3450164794922	39.18003463745116	355.3610534667968	39.65167999267565	1337.530029296875	214.489013671875	51.07590866088856	1191.908813476562	215.4603118896484	-59.21213150024423	1403.366577148438	43.60281372070311	-94.10340881347662	1251.909423828125	-59.51350402832033	-118.1749420166016	1192.614990234375	-76.61649322509768	-69.47869873046881	1191.0048828125	-61.57751083374025	-116.5420989990235	991.4751586914062	-110.0778579711914	-161.4636383056641	929.2227172851562	-90.51438903808597	-117.129264831543	929.8209228515625	-113.5339965820313	-108.9405899047852	826.317626953125	-123.6599197387695	-58.94190216064457	818.8611450195312	-63.05743408203126	-38.72019195556656	1395.463623046875	386.3882446289062	-36.77180099487322	1253.508056640625	494.6898193359375	-4.478314399719403	1195.894287109375	501.9144592285156	-52.57960891723649	1194.75927734375	520.1737060546875	48.48265838623031	988.4061889648438	541.7396850585938	125.8067016601561	968.9609985351562	546.6224365234375	87.43319702148422	940.3468017578125	532.2855834960938	160.5414581298827	886.7991333007812	521.3910522460938	189.0648956298827	904.9749145507812	446.9775085449219	
85	0.42	92.53524780273423	1604.505737304688	228.046859741211	42.58900451660141	1625.611083984375	294.2215881347656	46.36425018310534	1625.690673828125	156.1643218994141	-123.7818984985353	1437.101318359375	220.6121978759765	-184.3111114501954	1271.474243164062	219.0264739990234	-193.5170440673829	1232.160766601562	197.9473114013672	-198.0145874023439	1224.755004882812	247.8885650634765	-191.6369171142579	1167.882446289062	213.4270782470703	-172.5838928222657	1101.27587890625	213.6825866699218	-205.6218719482423	1069.131713867188	193.616226196289	-207.6714630126954	1067.253051757812	244.7090759277343	-213.0384063720704	1006.922302246094	214.3840942382812	-195.8994293212891	954.3270263671875	184.8760070800781	-199.0599822998048	952.31591796875	236.7976531982422	-212.8276367187501	893.9664916992188	207.4232025146484	10.13687324523922	678.923828125	11.38533306121826	-8.773189544677777	605.4059448242188	31.99974822998047	36.35714340209957	624.2664184570312	21.85410881042481	71.78354644775388	352.8377380371094	20.59558105468751	26.62203979492185	291.3247680664062	42.16693115234376	75.20304870605467	291.7245483398438	29.83662223815919	21.57215309143063	97.65447998046875	128.86962890625	241.024658203125	82.0491180419922	106.726547241211	190.4799346923828	52.92358779907228	17.63101768493656	-155.188690185547	695.3521728515625	391.9137268066406	-108.7387237548829	630.7313232421875	396.1332397460938	-156.0896148681641	635.2562255859375	380.2147827148437	-234.4635772705079	349.6536865234375	366.9126892089843	-211.8454132080079	273.8275756835938	364.0518798828124	-256.6814575195313	293.2044982910156	352.7293090820312	-320.1875915527344	82.98971557617186	242.8905944824218	-113.5848159790039	43.86093521118163	252.1303100585937	-164.2578887939454	39.14563751220702	355.3233032226562	46.71318817138659	1336.071655273438	213.9687194824219	57.83638381957996	1190.421630859375	215.13525390625	-52.05729675292978	1401.93505859375	42.97925186157226	-87.86023712158209	1250.622314453125	-60.05498504638673	-112.3069229125977	1191.4384765625	-77.03710174560548	-63.54033279418951	1189.5888671875	-62.22419738769533	-111.8132400512696	990.3353271484375	-110.6125640869141	-156.9702606201172	928.3157958984375	-90.8454513549805	-112.7479248046875	928.6994018554688	-114.0899963378906	-105.1679153442383	825.1224975585938	-124.218994140625	-54.76989364624027	817.4617309570312	-64.05805969238283	-31.66152381896988	1394.273803710938	385.8110046386719	-29.63882637023943	1252.59765625	494.2874450683594	2.868809700012041	1195.154418945312	501.7574462890625	-45.27669906616227	1193.858642578125	519.881591796875	57.30695724487288	988.2557373046875	541.6036987304688	134.8470306396483	969.6915893554688	546.1798095703125	96.76317596435531	940.659423828125	531.95166015625	170.3967132568358	887.90625	520.7271118164062	198.6081542968749	906.7223510742188	446.3312683105469	
86	0.425	99.58807373046861	1603.294799804688	227.1001129150391	49.62557983398422	1624.454345703125	293.2496337890625	53.41643142700183	1624.310668945312	155.1688537597656	-116.6123962402345	1435.902954101562	219.9368591308593	-177.3311462402345	1270.40771484375	218.3368225097656	-186.6258544921876	1231.112548828125	197.2493133544922	-191.2651672363283	1223.723388671875	247.1915588378906	-184.8548278808595	1166.818115234375	212.7122650146484	-165.9764709472657	1100.145263671875	212.9967651367187	-198.8961029052735	1067.940551757812	192.9055480957031	-201.0729827880861	1066.167724609375	244.0242919921875	-206.5064239501954	1005.782958984375	213.7678527832031	-189.3462677001954	953.1923217773438	184.2785034179687	-192.6217193603517	951.3770141601562	236.2183990478515	-206.5924682617188	892.9857788085938	206.9862365722656	16.2931632995605	676.7053833007812	12.30389404296875	-2.515989542007489	603.4605712890625	33.82955932617188	42.48257827758785	622.1471557617188	23.06122398376466	83.29001617431638	349.6565551757812	20.77671051025392	40.25517272949217	286.5303649902344	41.94563674926759	88.73655700683592	288.6591491699219	29.6112689971924	41.80952072143552	92.34522247314453	127.3778610229492	261.6584777832031	84.38926696777345	105.1590118408204	212.1330108642578	54.02653884887697	15.9195709228516	-150.4644622802736	695.1475219726562	391.86962890625	-104.5327301025392	630.1640014648438	396.0932312011719	-151.8299407958985	635.0489501953125	380.129150390625	-232.407196044922	350.0059814453125	366.8486022949218	-210.3459625244141	274.0074462890625	364.0881347656249	-255.0196533203126	293.7085266113281	352.6932678222656	-319.9564514160157	83.65545654296874	242.8648986816406	-113.569320678711	43.85467529296874	252.0639343261718	-164.1688232421876	39.09928131103515	355.3026733398437	53.79590225219714	1334.553100585938	213.4260864257812	64.61618804931629	1188.876342773438	214.7788238525391	-44.86896133422861	1400.4521484375	42.32882690429687	-81.5470809936524	1249.280151367188	-60.61288833618165	-106.3573532104493	1190.208129882812	-77.48785400390626	-57.52751541137701	1188.121704101562	-62.88182830810548	-106.9885406494141	989.1441040039062	-111.163948059082	-152.3759002685547	927.3557739257812	-91.19806671142581	-108.2639541625977	927.5279541015625	-114.6607437133789	-101.2834396362305	823.88232421875	-124.7875137329102	-50.49640274047855	816.0182495117188	-65.06168365478517	-24.57371711730973	1393.013549804688	385.2063293457031	-22.49200439453142	1251.612060546875	493.8457641601562	10.21849536895735	1194.333129882812	501.5564270019531	-37.97236251831071	1192.882934570312	519.5487670898438	66.08310699462875	988.0299072265625	541.4334716796875	143.825241088867	970.3359985351562	545.7207641601562	106.0328903198241	940.896728515625	531.5926513671875	180.1766204833983	888.934326171875	520.0650024414062	208.0670928955077	908.3555297851562	445.6752929687501	
87	0.43	106.6699600219725	1602.035766601562	226.1335144042969	56.68915939331039	1623.249389648438	292.25732421875	60.49598693847643	1622.8837890625	154.1541290283203	-109.4174194335939	1434.6650390625	219.2349853515625	-170.335418701172	1269.305908203125	217.614013671875	-179.7220916748048	1230.028930664062	196.520278930664	-184.500946044922	1222.654663085938	246.4610137939453	-178.0514678955079	1165.713134765625	211.9622650146484	-159.3447570800782	1098.968505859375	212.2794189453125	-192.1544036865235	1066.684814453125	192.1972503662109	-194.4415893554689	1065.021240234375	243.3377990722656	-199.9491119384766	1004.581970214844	213.1627960205078	-182.760955810547	952.0130004882812	183.6736450195312	-186.1465606689454	950.40478515625	235.6283416748047	-200.3274078369141	891.9690551757812	206.5525970458984	22.23149681091304	674.3448486328125	13.27162551879883	3.51583361625667	601.41015625	35.77730941772461	48.37364959716793	619.87548828125	24.30310821533204	94.74790954589842	346.5419616699219	20.91093826293947	53.87770843505857	281.8721008300781	41.63450241088868	102.2167510986328	285.7257385253906	29.3498058319092	62.01483917236325	87.401123046875	125.8396606445313	282.0006103515625	87.02572631835939	103.6607742309571	233.5578002929688	55.47972488403322	14.25718688964848	-145.7291717529298	694.94580078125	391.7994384765625	-100.3251190185548	629.6098022460938	396.08203125	-147.551010131836	634.8474731445312	380.0321655273438	-230.2963256835938	350.3718566894531	366.8166809082031	-208.8015441894532	274.2043151855469	364.1501464843749	-253.3098602294923	294.2328796386719	352.6936950683593	-319.7251281738282	84.3710479736328	242.8853454589843	-113.5539474487305	43.86028289794921	252.0086517333984	-164.0771789550782	39.04309463500976	355.2994995117187	60.90039062499988	1332.980346679688	212.8595581054688	71.41677093505848	1187.279418945312	214.3902587890625	-37.64873504638681	1398.9228515625	41.65053558349609	-75.16223144531256	1247.88623046875	-61.18869018554689	-100.3226318359376	1188.926635742188	-77.97020721435548	-51.43749618530279	1186.607055664062	-63.55035400390626	-102.0643310546875	987.9044189453125	-111.7316360473633	-147.6776733398438	926.345703125	-91.57288360595706	-103.6737060546875	926.30908203125	-115.2456893920899	-97.28404235839847	822.6002197265625	-125.365707397461	-46.12038421630863	814.5321044921875	-66.06531524658205	-17.45660400390641	1391.689208984375	384.5722961425781	-15.33025169372575	1250.557006835938	493.3634033203125	17.57024192810042	1193.434692382812	501.3092651367188	-30.66674613952654	1191.838134765625	519.173095703125	74.807289123535	987.7308959960938	541.2277221679688	152.7374572753905	970.8935546875	545.24609375	115.2380905151366	941.0595092773438	531.2079467773438	189.8770294189452	889.8831176757812	519.4052124023438	217.4408569335936	909.8731689453125	445.0112304687501	
